<svg xmlns="http://www.w3.org/2000/svg" xmlns:xlink="http://www.w3.org/1999/xlink" width="100%" height="100%" version="1.1" viewBox="0 0 90 90" xml:space="preserve" style="fill-rule:evenodd;clip-rule:evenodd;stroke-linejoin:round;stroke-miterlimit:2"><g id="bench-right"><g><path d="M140.702,586.079L139.93,589.12L102.592,589.163L101.552,585.86L140.702,586.079Z" transform="matrix(0.635,0,0,0.635,-113.675,-31.92) matrix(2.00017,-9.86076e-32,-9.86076e-32,2.00017,-10.4354,-1032.1)" style="fill:#655949;fill-rule:nonzero"/></g><g><path d="M156.722,549.68L159.354,551.389L147.406,586.764L143.944,586.688L156.722,549.68Z" transform="matrix(0.635,0,0,0.635,-113.675,-31.92) matrix(2.00017,-9.86076e-32,-9.86076e-32,2.00017,-10.4354,-1032.1)" style="fill:#655949;fill-rule:nonzero"/></g><g><path d="M99.644,587.744L108.737,611.987L118.362,611.987L108.033,584.633L99.644,587.744Z" transform="matrix(0.635,0,0,0.635,-113.675,-31.92) matrix(2.00017,-9.86076e-32,-9.86076e-32,2.00017,-10.4354,-1032.1)" style="fill:#7c705b;fill-rule:nonzero"/></g><g><path d="M132.611,611.987L142.048,611.987L150.259,587.572L140.992,587.066L132.611,611.987Z" transform="matrix(0.635,0,0,0.635,-113.675,-31.92) matrix(2.00017,-9.86076e-32,-9.86076e-32,2.00017,-10.4354,-1032.1)" style="fill:#7c705b;fill-rule:nonzero"/></g><g><path d="M111.739,592.314L114.866,582.912L96.175,582.877L99.218,592.356L111.739,592.314Z" transform="matrix(0.635,0,0,0.635,-113.675,-31.92) matrix(2.00017,-9.86076e-32,-9.86076e-32,2.00017,-10.4354,-1032.1)" style="fill:#968974;fill-rule:nonzero"/></g><g><path d="M149.239,592.314L152.366,582.912L133.675,582.877L136.718,592.356L149.239,592.314Z" transform="matrix(0.635,0,0,0.635,-113.675,-31.92) matrix(2.00017,-9.86076e-32,-9.86076e-32,2.00017,-10.4354,-1032.1)" style="fill:#968974;fill-rule:nonzero"/></g><g><path d="M130.489,582.918L133.616,592.32L114.925,592.356L117.968,582.877L130.489,582.918Z" transform="matrix(0.635,0,0,0.635,-113.675,-31.92) matrix(2.00017,-9.86076e-32,-9.86076e-32,2.00017,-10.4354,-1032.1)" style="fill:#968974;fill-rule:nonzero"/></g><g><path d="M157.126,568.107L149.215,562.139L143.209,579.839L153.164,579.985L157.126,568.107Z" transform="matrix(0.635,0,0,0.635,-113.675,-31.92) matrix(2.00017,-9.86076e-32,-9.86076e-32,2.00017,-10.4354,-1032.1)" style="fill:#968974;fill-rule:nonzero"/></g><g><path d="M154.212,547.337L164.121,547.378L158.182,565.102L150.172,559.19L154.212,547.337Z" transform="matrix(0.635,0,0,0.635,-113.675,-31.92) matrix(2.00017,-9.86076e-32,-9.86076e-32,2.00017,-10.4354,-1032.1)" style="fill:#968974;fill-rule:nonzero"/></g></g></svg>